<?xml version="1.0" encoding="utf-8"?><svg viewBox="0 0 30 30" xmlns="http://www.w3.org/2000/svg" xmlns:xlink="http://www.w3.org/1999/xlink"><style>:root>svg{display:none}:root>svg:target{display:block}</style><svg fill="none" viewBox="0 0 30 30" id="insta-link" xmlns="http://www.w3.org/2000/svg"><g clip-path="url(#aclip0_723_33)"><path fill-rule="evenodd" clip-rule="evenodd" d="M12.384 8.692c.676-.031.892-.038 2.616-.038 1.724 0 1.94.007 2.616.038.676.03 1.137.138 1.541.295.423.16.807.41 1.124.732.323.317.572.7.732 1.124.157.403.264.865.295 1.54.031.678.038.894.038 2.617 0 1.724-.007 1.94-.038 2.616-.03.675-.138 1.137-.295 1.54-.16.424-.41.808-.732 1.125-.317.323-.7.572-1.124.732-.404.157-.865.264-1.54.295-.677.031-.893.038-2.617.038s-1.94-.007-2.616-.038c-.675-.03-1.137-.138-1.54-.295a3.114 3.114 0 01-1.125-.732 3.11 3.11 0 01-.732-1.124c-.157-.404-.264-.865-.295-1.54-.031-.678-.038-.894-.038-2.617 0-1.724.007-1.94.038-2.616.03-.676.138-1.138.295-1.541.16-.424.41-.807.732-1.124a3.11 3.11 0 011.124-.732c.403-.157.865-.264 1.54-.295zm5.18 1.142c-.669-.03-.87-.037-2.564-.037s-1.895.007-2.565.037c-.619.028-.954.132-1.178.219a1.97 1.97 0 00-.73.474c-.21.205-.372.454-.474.73-.087.224-.19.56-.219 1.178-.03.67-.037.87-.037 2.565 0 1.694.007 1.895.037 2.564.028.62.132.955.219 1.179.101.275.263.525.474.73.205.21.455.373.73.474.224.087.56.19 1.178.219.67.03.87.037 2.565.037 1.695 0 1.895-.007 2.564-.037.62-.029.955-.132 1.179-.219a1.97 1.97 0 00.73-.474 1.97 1.97 0 00.474-.73c.087-.224.19-.56.219-1.179.03-.669.037-.87.037-2.564s-.007-1.895-.037-2.565c-.029-.619-.132-.954-.219-1.178a1.97 1.97 0 00-.474-.73 1.968 1.968 0 00-.73-.474c-.224-.087-.56-.19-1.179-.219zm-3.375 7.122a2.117 2.117 0 10.604-4.063 2.116 2.116 0 00-1.362 3.529c.21.232.47.414.758.534zm-1.496-4.263a3.263 3.263 0 114.614 4.615 3.263 3.263 0 01-4.614-4.615zm6.292-.47a.77.77 0 10-1.057-1.121.77.77 0 001.057 1.122z" fill="#715B4B"/></g><circle cx="15" cy="15" r="14.5" stroke="#715B4B"/><defs><clipPath id="aclip0_723_33"><path fill="#fff" transform="translate(8.077 8.077)" d="M0 0h13.846v13.846H0z"/></clipPath></defs></svg><svg fill="none" viewBox="0 0 30 30" id="tele-link" xmlns="http://www.w3.org/2000/svg"><path d="M20.311 9.18c.428 0 .75.375.578 1.073l-2.093 9.862c-.146.701-.57.87-1.155.544l-4.991-3.686a.149.149 0 01-.046-.19.149.149 0 01.046-.054l5.764-5.205c.262-.233-.056-.345-.402-.135l-7.233 4.564a.171.171 0 01-.15.018l-3.072-.97c-.682-.2-.682-.668.154-1.002L20 9.259a.81.81 0 01.311-.079v0z" stroke="#715B4B" stroke-linecap="round" stroke-linejoin="round"/><circle cx="15" cy="15" r="14.5" stroke="#715B4B"/></svg><svg fill="none" viewBox="0 0 30 30" id="whats-link" xmlns="http://www.w3.org/2000/svg"><g clip-path="url(#cclip0_723_38)"><path fill-rule="evenodd" clip-rule="evenodd" d="M18.124 16.374c-.172-.086-1.015-.5-1.172-.558-.157-.057-.27-.085-.386.087-.114.17-.442.557-.542.671-.1.115-.2.13-.372.044-.17-.087-.724-.267-1.378-.851a5.16 5.16 0 01-.954-1.188c-.1-.171-.011-.264.075-.35.077-.076.171-.2.257-.3.086-.1.115-.172.172-.287.057-.114.028-.213-.015-.3-.042-.085-.385-.93-.528-1.273-.14-.334-.28-.288-.386-.294a7.44 7.44 0 00-.329-.006c-.114 0-.3.043-.456.215-.158.171-.6.586-.6 1.43s.613 1.659.7 1.774c.085.114 1.208 1.846 2.928 2.588.41.177.729.282.977.36.41.132.785.113 1.08.069.329-.05 1.014-.415 1.157-.815.143-.4.143-.744.1-.816-.042-.071-.157-.114-.329-.2h.001zm-3.128 4.271h-.002a5.694 5.694 0 01-2.903-.795l-.208-.123-2.159.566.576-2.104-.135-.216a5.689 5.689 0 01-.872-3.035 5.71 5.71 0 015.705-5.702c1.523 0 2.955.594 4.032 1.672a5.668 5.668 0 011.668 4.034 5.71 5.71 0 01-5.702 5.703zm4.853-10.556a6.817 6.817 0 00-4.854-2.012c-3.78 0-6.86 3.078-6.86 6.86-.001 1.21.315 2.39.915 3.43l-.973 3.556 3.637-.954a6.855 6.855 0 003.28.835h.002c3.781 0 6.86-3.078 6.86-6.861a6.82 6.82 0 00-2.007-4.854" fill="#715B4B"/></g><circle cx="15" cy="15" r="14.5" stroke="#715B4B"/><defs><clipPath id="cclip0_723_38"><path fill="#fff" transform="translate(8.077 8.077)" d="M0 0h13.846v13.846H0z"/></clipPath></defs></svg></svg>