<svg width="7" height="14" viewBox="0 0 7 14" fill="none" xmlns="http://www.w3.org/2000/svg">
<path d="M6.78497 12.2063L1.70997 7.00006L6.78497 1.79381C6.87583 1.70079 6.92669 1.57592 6.92669 1.44589C6.92669 1.31586 6.87583 1.19099 6.78497 1.09798C6.74084 1.05294 6.68817 1.01716 6.63004 0.992728C6.57191 0.968301 6.50948 0.955719 6.44643 0.955719C6.38337 0.955719 6.32095 0.968301 6.26282 0.992728C6.20469 1.01716 6.15202 1.05294 6.10789 1.09798L0.70789 6.63652C0.613083 6.73378 0.560023 6.86424 0.560023 7.00006C0.560023 7.13589 0.613083 7.26634 0.70789 7.3636L6.10685 12.9021C6.15101 12.9475 6.20381 12.9836 6.26213 13.0082C6.32046 13.0328 6.38312 13.0455 6.44643 13.0455C6.50974 13.0455 6.5724 13.0328 6.63072 13.0082C6.68905 12.9836 6.74185 12.9475 6.78601 12.9021C6.87687 12.8091 6.92773 12.6843 6.92773 12.5542C6.92773 12.4242 6.87687 12.2993 6.78601 12.2063H6.78497Z" fill="#323232"/>
</svg>
