<svg width="7" height="14" viewBox="0 0 7 14" fill="none" xmlns="http://www.w3.org/2000/svg">
<path d="M0.215029 1.79369L5.29003 6.99994L0.215029 12.2062C0.124173 12.2992 0.0733072 12.4241 0.0733072 12.5541C0.0733072 12.6841 0.124173 12.809 0.215029 12.902C0.259159 12.9471 0.311831 12.9828 0.369962 13.0073C0.428094 13.0317 0.490515 13.0443 0.553571 13.0443C0.616626 13.0443 0.679047 13.0317 0.737178 13.0073C0.79531 12.9828 0.847983 12.9471 0.892112 12.902L6.29211 7.36348C6.38692 7.26622 6.43998 7.13576 6.43998 6.99994C6.43998 6.86411 6.38692 6.73366 6.29211 6.6364L0.893154 1.09785C0.848991 1.0525 0.796189 1.01645 0.737865 0.991829C0.679541 0.967213 0.616877 0.954531 0.553571 0.954531C0.490264 0.954531 0.4276 0.967213 0.369275 0.991829C0.310951 1.01645 0.25815 1.0525 0.213987 1.09785C0.12313 1.19087 0.0722656 1.31574 0.0722656 1.44577C0.0722656 1.5758 0.12313 1.70067 0.213987 1.79369H0.215029Z" fill="#323232"/>
</svg>
