<svg width="14" height="14" viewBox="0 0 14 14" fill="none" xmlns="http://www.w3.org/2000/svg">
<g clip-path="url(#clip0_723_34)">
<path fill-rule="evenodd" clip-rule="evenodd" d="M4.38362 0.691886C5.06035 0.660732 5.27612 0.653809 6.99996 0.653809C8.72381 0.653809 8.93958 0.661309 9.61573 0.691886C10.2919 0.722462 10.7534 0.830347 11.1573 0.986693C11.5802 1.1465 11.9638 1.39631 12.2811 1.71939C12.6042 2.03612 12.8534 2.41919 13.0127 2.84265C13.1696 3.2465 13.2769 3.70804 13.308 4.38304C13.3392 5.06092 13.3461 5.27669 13.3461 6.99996C13.3461 8.72381 13.3386 8.93958 13.308 9.61631C13.2775 10.2913 13.1696 10.7528 13.0127 11.1567C12.8534 11.5802 12.6038 11.9639 12.2811 12.2811C11.9638 12.6042 11.5802 12.8534 11.1573 13.0127C10.7534 13.1696 10.2919 13.2769 9.61689 13.308C8.93958 13.3392 8.72381 13.3461 6.99996 13.3461C5.27612 13.3461 5.06035 13.3386 4.38362 13.308C3.70862 13.2775 3.24708 13.1696 2.84323 13.0127C2.41972 12.8534 2.03601 12.6038 1.71881 12.2811C1.39595 11.9642 1.14611 11.5807 0.986693 11.1573C0.830347 10.7534 0.723039 10.2919 0.691886 9.61689C0.660732 8.939 0.653809 8.72323 0.653809 6.99996C0.653809 5.27612 0.661309 5.06035 0.691886 4.38419C0.722462 3.70804 0.830347 3.2465 0.986693 2.84265C1.14634 2.41924 1.39638 2.03572 1.71939 1.71881C2.03614 1.39602 2.41947 1.14618 2.84265 0.986693C3.2465 0.830347 3.70804 0.723039 4.38304 0.691886H4.38362ZM9.56439 1.83419C8.89515 1.80362 8.69439 1.79727 6.99996 1.79727C5.30554 1.79727 5.10477 1.80362 4.43554 1.83419C3.8165 1.86246 3.48073 1.96573 3.25689 2.05285C2.96092 2.16823 2.74919 2.30496 2.52708 2.52708C2.31653 2.73192 2.15449 2.98128 2.05285 3.25689C1.96573 3.48073 1.86246 3.8165 1.83419 4.43554C1.80362 5.10477 1.79727 5.30554 1.79727 6.99996C1.79727 8.69439 1.80362 8.89515 1.83419 9.56439C1.86246 10.1834 1.96573 10.5192 2.05285 10.743C2.15439 11.0182 2.3165 11.268 2.52708 11.4728C2.73189 11.6834 2.98169 11.8455 3.25689 11.9471C3.48073 12.0342 3.8165 12.1375 4.43554 12.1657C5.10477 12.1963 5.30496 12.2027 6.99996 12.2027C8.69496 12.2027 8.89515 12.1963 9.56439 12.1657C10.1834 12.1375 10.5192 12.0342 10.743 11.9471C11.039 11.8317 11.2507 11.695 11.4728 11.4728C11.6834 11.268 11.8455 11.0182 11.9471 10.743C12.0342 10.5192 12.1375 10.1834 12.1657 9.56439C12.1963 8.89515 12.2027 8.69439 12.2027 6.99996C12.2027 5.30554 12.1963 5.10477 12.1657 4.43554C12.1375 3.8165 12.0342 3.48073 11.9471 3.25689C11.8317 2.96092 11.695 2.74919 11.4728 2.52708C11.268 2.31654 11.0186 2.15451 10.743 2.05285C10.5192 1.96573 10.1834 1.86246 9.56439 1.83419ZM6.18939 8.95631C6.64207 9.14475 7.14614 9.17018 7.6155 9.02826C8.08485 8.88634 8.49038 8.58588 8.76281 8.17818C9.03525 7.77048 9.15769 7.28085 9.10922 6.79291C9.06075 6.30497 8.84439 5.84899 8.49708 5.50285C8.27568 5.28158 8.00797 5.11216 7.71323 5.00678C7.41849 4.90139 7.10406 4.86267 6.79256 4.89339C6.48106 4.92412 6.18024 5.02353 5.91177 5.18446C5.6433 5.3454 5.41385 5.56385 5.23994 5.82411C5.06604 6.08436 4.95199 6.37994 4.90603 6.68956C4.86006 6.99917 4.88332 7.31513 4.97412 7.61468C5.06492 7.91424 5.22101 8.18993 5.43115 8.42192C5.64129 8.6539 5.90025 8.83641 6.18939 8.95631ZM4.69342 4.69342C4.99632 4.39052 5.35592 4.15025 5.75167 3.98632C6.14743 3.8224 6.5716 3.73802 6.99996 3.73802C7.42833 3.73802 7.8525 3.8224 8.24825 3.98632C8.64401 4.15025 9.0036 4.39052 9.3065 4.69342C9.6094 4.99632 9.84967 5.35592 10.0136 5.75167C10.1775 6.14743 10.2619 6.5716 10.2619 6.99996C10.2619 7.42833 10.1775 7.8525 10.0136 8.24825C9.84967 8.64401 9.6094 9.0036 9.3065 9.3065C8.69477 9.91823 7.86508 10.2619 6.99996 10.2619C6.13484 10.2619 5.30516 9.91823 4.69342 9.3065C4.08169 8.69477 3.73802 7.86508 3.73802 6.99996C3.73802 6.13484 4.08169 5.30516 4.69342 4.69342ZM10.9853 4.22381C11.0604 4.153 11.1205 4.06786 11.1621 3.97341C11.2036 3.87896 11.2258 3.77714 11.2273 3.67396C11.2288 3.57078 11.2096 3.46836 11.1708 3.37274C11.132 3.27712 11.0744 3.19026 11.0015 3.11729C10.9285 3.04433 10.8417 2.98675 10.746 2.94795C10.6504 2.90916 10.548 2.88995 10.4448 2.89145C10.3416 2.89296 10.2398 2.91515 10.1454 2.95671C10.0509 2.99827 9.96577 3.05836 9.89496 3.13342C9.75726 3.2794 9.68186 3.4733 9.68479 3.67396C9.68772 3.87462 9.76873 4.06624 9.91063 4.20814C10.0525 4.35004 10.2442 4.43106 10.4448 4.43398C10.6455 4.43691 10.8394 4.36151 10.9853 4.22381Z" fill="#715B4B"/>
</g>
<defs>
<clipPath id="clip0_723_34">
<rect width="13.8462" height="13.8462" fill="white" transform="translate(0.0769043 0.0769043)"/>
</clipPath>
</defs>
</svg>
