<svg width="18" height="18" viewBox="0 0 18 18" fill="none" xmlns="http://www.w3.org/2000/svg">
<path d="M15.3112 3.18005C15.7387 3.18005 16.0612 3.55505 15.8887 4.25255L13.7962 14.1151C13.65 14.8163 13.2262 14.9851 12.6412 14.6588L7.64997 10.9726C7.63062 10.9587 7.61485 10.9404 7.60397 10.9192C7.59309 10.898 7.58742 10.8745 7.58742 10.8507C7.58742 10.8269 7.59309 10.8034 7.60397 10.7822C7.61485 10.761 7.63062 10.7427 7.64997 10.7288L13.4137 5.5238C13.6762 5.2913 13.3575 5.1788 13.0125 5.3888L5.77872 9.95255C5.75678 9.96686 5.73187 9.97599 5.70589 9.97923C5.6799 9.98248 5.65351 9.97977 5.62872 9.9713L2.55747 9.00005C1.87497 8.8013 1.87497 8.33255 2.71122 7.9988L15 3.2588C15.0974 3.21205 15.2033 3.18527 15.3112 3.18005V3.18005Z" stroke="#715B4B" stroke-linecap="round" stroke-linejoin="round"/>
</svg>
