<svg width="26" height="22" viewBox="0 0 26 22" fill="none" xmlns="http://www.w3.org/2000/svg">
<path d="M24.2062 0.912109C24.9472 0.912109 25.5062 1.56211 25.2072 2.77111L21.5802 19.8661C21.3267 21.0816 20.5922 21.3741 19.5782 20.8086L10.9267 14.4191C10.8931 14.395 10.8658 14.3633 10.847 14.3266C10.8281 14.2898 10.8183 14.2492 10.8183 14.2079C10.8183 14.1666 10.8281 14.1259 10.847 14.0891C10.8658 14.0524 10.8931 14.0207 10.9267 13.9966L20.9172 4.97461C21.3722 4.57161 20.8197 4.37661 20.2217 4.74061L7.68319 12.6511C7.64517 12.6759 7.60199 12.6917 7.55694 12.6974C7.5119 12.703 7.46616 12.6983 7.4232 12.6836L2.0997 11.0001C0.916696 10.6556 0.916696 9.84311 2.3662 9.26461L23.6667 1.04861C23.8356 0.967568 24.0191 0.921157 24.2062 0.912109V0.912109Z" stroke="#F6F6F6" stroke-linecap="round" stroke-linejoin="round"/>
</svg>
