<svg width="14" height="14" viewBox="0 0 14 14" fill="none" xmlns="http://www.w3.org/2000/svg">
<g clip-path="url(#clip0_723_39)">
<path fill-rule="evenodd" clip-rule="evenodd" d="M10.124 8.37424C9.9521 8.28827 9.10921 7.87404 8.95229 7.81635C8.79537 7.75924 8.68114 7.73097 8.56633 7.90289C8.4521 8.07366 8.12383 8.4602 8.02402 8.57443C7.92363 8.68924 7.82383 8.70308 7.65248 8.6177C7.48113 8.53116 6.92844 8.35058 6.27364 7.76674C5.76421 7.31212 5.41979 6.75078 5.31998 6.57885C5.22017 6.40751 5.30902 6.31462 5.39498 6.22924C5.47229 6.15251 5.56633 6.02904 5.65229 5.92924C5.73825 5.82885 5.76652 5.75731 5.82364 5.64251C5.88133 5.52827 5.85248 5.42847 5.80921 5.34251C5.76652 5.25654 5.42383 4.41251 5.28075 4.06924C5.14171 3.7352 5.00037 3.78077 4.89537 3.77501C4.79498 3.77039 4.68075 3.76924 4.56652 3.76924C4.45229 3.76924 4.26652 3.81193 4.1096 3.98385C3.9521 4.1552 3.5096 4.57001 3.5096 5.41404C3.5096 6.25751 4.12344 7.0727 4.2094 7.18751C4.29537 7.30174 5.41806 9.03366 7.13787 9.77616C7.54748 9.9527 7.86652 10.0583 8.11517 10.1367C8.52594 10.2677 8.89979 10.2492 9.19517 10.2048C9.52402 10.1558 10.2094 9.79001 10.3525 9.38962C10.495 8.98924 10.495 8.64597 10.4523 8.57443C10.4096 8.50289 10.2954 8.4602 10.1234 8.37424H10.124ZM6.99594 12.6452H6.99364C5.97215 12.6454 4.96943 12.3708 4.09056 11.8502L3.88287 11.7267L1.72402 12.2933L2.30037 10.1887L2.16479 9.97289C1.59371 9.06386 1.2915 8.0118 1.29306 6.93827C1.29421 3.79404 3.85229 1.23597 6.99825 1.23597C8.52133 1.23597 9.95325 1.8302 11.0298 2.90789C11.5608 3.43669 11.9816 4.06552 12.268 4.75802C12.5544 5.45052 12.7006 6.19294 12.6983 6.94231C12.6971 10.0865 10.139 12.6452 6.99594 12.6452V12.6452ZM11.849 2.08924C11.2134 1.44938 10.457 0.942045 9.62388 0.596621C8.79072 0.251196 7.89729 0.0745526 6.99537 0.0769279C3.21421 0.0769279 0.13575 3.15481 0.134597 6.9377C0.13402 8.14693 0.449597 9.32731 1.05017 10.3675L0.0769043 13.9231L3.71383 12.9689C4.71991 13.517 5.84734 13.8042 6.99306 13.8042H6.99594C10.7771 13.8042 13.8556 10.7264 13.8567 6.94289C13.8595 6.04132 13.6835 5.14814 13.3389 4.31502C12.9943 3.48191 12.4879 2.72539 11.849 2.08924" fill="#715B4B"/>
</g>
<defs>
<clipPath id="clip0_723_39">
<rect width="13.8462" height="13.8462" fill="white" transform="translate(0.0769043 0.0769043)"/>
</clipPath>
</defs>
</svg>
