<?xml version="1.0" encoding="utf-8"?><svg viewBox="0 0 26 24" xmlns="http://www.w3.org/2000/svg" xmlns:xlink="http://www.w3.org/1999/xlink"><style>:root>svg{display:none}:root>svg:target{display:block}</style><svg fill="none" viewBox="0 0 7 14" id="arrow-left" xmlns="http://www.w3.org/2000/svg"><path d="M6.785 12.206L1.71 7l5.075-5.206A.498.498 0 006.63.993a.474.474 0 00-.522.105l-5.4 5.539a.52.52 0 000 .727l5.399 5.538a.473.473 0 00.679 0 .498.498 0 000-.696h-.001z" fill="#323232"/></svg><svg fill="none" viewBox="0 0 7 14" id="arrow-right" xmlns="http://www.w3.org/2000/svg"><path d="M.215 1.794L5.29 7 .215 12.206a.498.498 0 00.155.801.474.474 0 00.522-.105l5.4-5.539a.52.52 0 000-.727L.893 1.098a.474.474 0 00-.679 0 .498.498 0 000 .696h.001z" fill="#323232"/></svg><svg fill="none" viewBox="0 0 22 22" id="insta-link" xmlns="http://www.w3.org/2000/svg"><path fill-rule="evenodd" clip-rule="evenodd" d="M6.465.066C7.638.012 8.012 0 11 0c2.988 0 3.362.013 4.534.066 1.172.053 1.972.24 2.672.511.733.277 1.398.71 1.948 1.27.56.549.992 1.213 1.268 1.947.272.7.458 1.5.512 2.67C21.988 7.639 22 8.013 22 11c0 2.988-.013 3.362-.066 4.535-.053 1.17-.24 1.97-.512 2.67a5.396 5.396 0 01-1.268 1.949c-.55.56-1.215.992-1.948 1.268-.7.272-1.5.458-2.67.512-1.174.054-1.548.066-4.536.066-2.988 0-3.362-.013-4.535-.066-1.17-.053-1.97-.24-2.67-.512a5.396 5.396 0 01-1.949-1.268 5.392 5.392 0 01-1.269-1.948c-.271-.7-.457-1.5-.511-2.67C.012 14.361 0 13.987 0 11c0-2.988.013-3.362.066-4.534.053-1.172.24-1.972.511-2.672a5.396 5.396 0 011.27-1.948A5.392 5.392 0 013.794.577c.7-.271 1.5-.457 2.67-.511h.001zm8.98 1.98c-1.16-.053-1.508-.064-4.445-.064-2.937 0-3.285.011-4.445.064-1.073.049-1.655.228-2.043.379-.513.2-.88.437-1.265.822a3.412 3.412 0 00-.822 1.265c-.151.388-.33.97-.379 2.043-.053 1.16-.064 1.508-.064 4.445 0 2.937.011 3.285.064 4.445.049 1.073.228 1.655.379 2.043.176.477.457.91.822 1.265.355.365.788.646 1.265.822.388.151.97.33 2.043.379 1.16.053 1.507.064 4.445.064 2.938 0 3.285-.011 4.445-.064 1.073-.049 1.655-.228 2.043-.379.513-.2.88-.437 1.265-.822.365-.355.646-.788.822-1.265.151-.388.33-.97.379-2.043.053-1.16.064-1.508.064-4.445 0-2.937-.011-3.285-.064-4.445-.049-1.073-.228-1.655-.379-2.043-.2-.513-.437-.88-.822-1.265a3.413 3.413 0 00-1.265-.822c-.388-.151-.97-.33-2.043-.379zm-5.85 12.345a3.67 3.67 0 102.641-6.846 3.67 3.67 0 00-2.641 6.846zM7.002 7.002a5.654 5.654 0 117.996 7.996 5.654 5.654 0 01-7.996-7.996zm10.906-.814a1.336 1.336 0 10-1.834-1.944 1.336 1.336 0 001.834 1.944z" fill="#F6F6F6"/></svg><svg fill="none" viewBox="0 0 14 14" id="instagram-brown" xmlns="http://www.w3.org/2000/svg"><g clip-path="url(#dclip0_723_34)"><path fill-rule="evenodd" clip-rule="evenodd" d="M4.384.692C5.06.66 5.276.654 7 .654c1.724 0 1.94.007 2.616.038.676.03 1.137.138 1.541.295.423.16.807.41 1.124.732.323.317.572.7.732 1.124.157.404.264.865.295 1.54.031.678.038.894.038 2.617 0 1.724-.007 1.94-.038 2.616-.03.675-.138 1.137-.295 1.54-.16.424-.41.808-.732 1.125-.317.323-.7.572-1.124.732-.404.157-.865.264-1.54.295-.677.031-.893.038-2.617.038s-1.94-.007-2.616-.038c-.675-.03-1.137-.138-1.54-.295a3.114 3.114 0 01-1.125-.732 3.11 3.11 0 01-.732-1.124c-.157-.404-.264-.865-.295-1.54C.66 8.939.654 8.723.654 7c0-1.724.007-1.94.038-2.616.03-.676.138-1.138.295-1.541.16-.424.41-.807.732-1.124A3.11 3.11 0 012.843.987c.404-.157.865-.264 1.54-.295zm5.18 1.142c-.669-.03-.87-.037-2.564-.037s-1.895.007-2.564.037c-.62.028-.955.132-1.18.219a1.97 1.97 0 00-.729.474c-.21.205-.373.454-.474.73-.087.224-.19.56-.219 1.179-.03.669-.037.87-.037 2.564s.007 1.895.037 2.564c.028.62.132.955.219 1.179.101.275.264.525.474.73.205.21.455.372.73.474.224.087.56.19 1.179.219.669.03.869.037 2.564.037s1.895-.007 2.564-.037c.62-.029.955-.132 1.179-.219a1.97 1.97 0 00.73-.474 1.97 1.97 0 00.474-.73c.087-.224.19-.56.219-1.179.03-.669.037-.87.037-2.564s-.007-1.895-.037-2.564c-.029-.62-.132-.955-.219-1.18a1.97 1.97 0 00-.474-.729 1.969 1.969 0 00-.73-.474c-.224-.087-.56-.19-1.179-.219zM6.19 8.956a2.117 2.117 0 10.604-4.063 2.117 2.117 0 00-.604 4.063zM4.693 4.693a3.262 3.262 0 114.614 4.614 3.262 3.262 0 01-4.614-4.614zm6.292-.47a.772.772 0 10-1.058-1.122.772.772 0 001.058 1.123z" fill="#715B4B"/></g><defs><clipPath id="dclip0_723_34"><path fill="#fff" transform="translate(.077 .077)" d="M0 0h13.846v13.846H0z"/></clipPath></defs></svg><svg fill="none" viewBox="0 0 26 22" id="tele-link" xmlns="http://www.w3.org/2000/svg"><path d="M24.206.912c.741 0 1.3.65 1.001 1.86L21.58 19.865c-.253 1.216-.988 1.508-2.002.943l-8.651-6.39a.26.26 0 010-.422l9.99-9.022c.455-.403-.097-.598-.695-.234L7.683 12.65a.3.3 0 01-.26.033L2.1 11c-1.183-.344-1.183-1.157.266-1.735l21.3-8.216c.17-.081.353-.128.54-.137v0z" stroke="#F6F6F6" stroke-linecap="round" stroke-linejoin="round"/></svg><svg fill="none" viewBox="0 0 18 18" id="telegram-brown" xmlns="http://www.w3.org/2000/svg"><path d="M15.311 3.18c.428 0 .75.375.578 1.073l-2.093 9.862c-.146.701-.57.87-1.155.544L7.65 10.973a.15.15 0 010-.244l5.764-5.205c.262-.233-.056-.345-.402-.135L5.78 9.953a.172.172 0 01-.15.018L2.557 9c-.682-.199-.682-.667.154-1.001L15 3.259a.81.81 0 01.311-.079v0z" stroke="#715B4B" stroke-linecap="round" stroke-linejoin="round"/></svg><svg fill="none" viewBox="0 0 14 14" id="whatsup-brown" xmlns="http://www.w3.org/2000/svg"><g clip-path="url(#gclip0_723_39)"><path fill-rule="evenodd" clip-rule="evenodd" d="M10.124 8.374c-.172-.086-1.015-.5-1.172-.558-.157-.057-.27-.085-.386.087-.114.17-.442.557-.542.671-.1.115-.2.13-.372.044-.17-.087-.724-.267-1.378-.851a5.16 5.16 0 01-.954-1.188c-.1-.171-.011-.264.075-.35.077-.076.171-.2.257-.3.086-.1.115-.172.172-.286.057-.115.028-.215-.015-.3-.042-.086-.385-.93-.528-1.274-.14-.334-.28-.288-.386-.294a7.41 7.41 0 00-.328-.006c-.115 0-.3.043-.457.215-.158.171-.6.586-.6 1.43s.613 1.659.7 1.774c.085.114 1.208 1.846 2.928 2.588.41.177.729.282.977.36.41.132.785.113 1.08.069.329-.05 1.014-.415 1.157-.815.143-.4.143-.744.1-.816-.042-.071-.157-.114-.329-.2h.001zm-3.128 4.271h-.002a5.694 5.694 0 01-2.903-.795l-.208-.123-2.159.566.576-2.104-.135-.216a5.689 5.689 0 01-.872-3.035 5.71 5.71 0 015.705-5.702c1.523 0 2.955.594 4.032 1.672a5.668 5.668 0 011.668 4.034 5.71 5.71 0 01-5.702 5.703zM11.849 2.09A6.816 6.816 0 006.995.077c-3.78 0-6.86 3.078-6.86 6.86-.001 1.21.315 2.39.915 3.43l-.973 3.556 3.637-.954a6.855 6.855 0 003.28.835h.002c3.781 0 6.86-3.078 6.86-6.861a6.82 6.82 0 00-2.007-4.854" fill="#715B4B"/></g><defs><clipPath id="gclip0_723_39"><path fill="#fff" transform="translate(.077 .077)" d="M0 0h13.846v13.846H0z"/></clipPath></defs></svg><svg fill="none" viewBox="0 0 24 24" id="whatsup-link" xmlns="http://www.w3.org/2000/svg"><path fill-rule="evenodd" clip-rule="evenodd" d="M17.415 14.382c-.298-.149-1.759-.867-2.031-.967-.272-.099-.47-.148-.669.15-.198.296-.767.966-.94 1.164-.174.199-.347.223-.644.075-.297-.15-1.255-.463-2.39-1.475-.883-.788-1.48-1.761-1.653-2.059-.173-.297-.019-.458.13-.606.134-.133.297-.347.446-.52.149-.174.198-.298.297-.497.1-.198.05-.371-.025-.52-.074-.149-.668-1.612-.916-2.207-.241-.579-.486-.5-.668-.51-.174-.008-.372-.01-.57-.01-.198 0-.52.074-.792.372-.273.297-1.04 1.016-1.04 2.479 0 1.462 1.064 2.875 1.213 3.074.149.198 2.095 3.2 5.076 4.487.71.306 1.263.489 1.694.625.712.227 1.36.195 1.872.118.57-.085 1.758-.719 2.006-1.413.247-.694.247-1.289.173-1.413-.074-.124-.272-.198-.57-.347h.001zm-5.422 7.403h-.004a9.869 9.869 0 01-5.032-1.378l-.36-.214-3.742.982.999-3.648-.235-.374a9.86 9.86 0 01-1.511-5.26c.002-5.45 4.436-9.884 9.889-9.884 2.64 0 5.122 1.03 6.988 2.898a9.825 9.825 0 012.892 6.993c-.002 5.45-4.436 9.885-9.884 9.885zm8.412-18.297A11.815 11.815 0 0011.992 0C5.438 0 .102 5.335.1 11.892a11.864 11.864 0 001.587 5.945L0 24l6.304-1.654a11.88 11.88 0 005.684 1.448h.005c6.554 0 11.89-5.335 11.892-11.893a11.82 11.82 0 00-3.48-8.413z" fill="#F6F6F6"/></svg></svg>